<svg xmlns="http://www.w3.org/2000/svg" width="559" height="516" fill="none"><path fill="#000" d="M180.009 476.881c-32.503-17.297-60.596-36.112-84.28-56.444-23.07-20.52-42.453-42.169-58.147-64.946C22.289 332.928 9.762 309.518 0 285.262l93.688-51.372c15.876 39.875 35.888 72.934 60.034 99.179 24.36 25.843 50.584 46.239 78.673 61.187 12.439 6.62 25.518 12.035 39.237 16.246 14.334 4.022 27.315 5.263 38.942 3.723 12.241-1.728 21.349-8.215 27.323-19.46 3.414-6.426 4.288-12.916 2.622-19.469-1.452-6.955-5.043-13.76-10.772-20.416-5.516-7.056-12.757-14.258-21.722-21.605-8.563-7.133-17.942-14.185-28.136-21.156a3862.535 3862.535 0 0 0-31.146-22.757c-25.579-17.735-46.988-35.568-64.227-53.5-17.239-17.932-30.709-36.176-40.409-54.733-9.3-18.344-14.122-36.88-14.466-55.61.27-18.917 5.419-37.814 15.446-56.69 11.095-20.885 25.831-36.998 44.209-48.34C208.289 8.96 229.801 2.378 253.832.741c24.244-2.037 49.603.125 76.077 6.486 26.875 6.575 53.755 17.017 80.639 31.324 28.892 15.376 53.28 31.96 73.165 49.756 20.286 18.008 36.697 36.53 49.232 55.565 12.535 19.035 21.22 37.567 26.055 55.595l-89.451 40.489c-5.902-16.02-14.368-31.086-25.4-45.2-10.819-14.515-23.293-27.851-37.424-40.008-14.13-12.156-28.819-22.292-44.067-30.407-16.452-8.755-31.952-14.943-46.499-18.564-13.933-3.808-26.205-4.93-36.816-3.365-10.611 1.566-18.263 6.766-22.957 15.602-4.267 8.032-4.778 16.261-1.533 24.685 3.647 8.638 9.632 17.233 17.957 25.784 8.726 8.766 18.575 17.356 29.546 25.77a629.602 629.602 0 0 0 33.554 24.039c21.566 15.599 41.904 31.574 61.012 47.925 19.509 16.564 35.544 33.856 48.105 51.874 12.56 18.018 19.709 37.02 21.445 57.005 2.137 20.199-3.088 42.146-15.676 65.842-15.789 29.72-37.857 50.431-66.206 62.133-27.948 11.916-59.756 15.595-95.423 11.038-35.053-4.745-71.439-17.154-109.158-37.228Z"/></svg>